<?xml version="1.0" encoding="utf-8"?>
<!-- Generator: Adobe Illustrator 24.0.2, SVG Export Plug-In . SVG Version: 6.00 Build 0)  -->
<svg version="1.1" id="Layer_1" xmlns="http://www.w3.org/2000/svg" xmlns:xlink="http://www.w3.org/1999/xlink" x="0px" y="0px"
	 viewBox="0 0 200 200" style="enable-background:new 0 0 200 200;" xml:space="preserve">
<style type="text/css">
	.st0{fill:#FFFFFF;}
	.st1{fill:#0071BC;}
	.st2{stroke:#000000;stroke-width:0.75;stroke-miterlimit:10;}
	.st3{fill:none;stroke:#0071BC;stroke-width:4;stroke-miterlimit:10;}
	.st4{fill:#FFFFFF;stroke:#0071BC;stroke-width:5;stroke-miterlimit:10;}
	.st5{fill:none;stroke:#0071BC;stroke-width:5;stroke-miterlimit:10;}
</style>
<g>
	<circle class="st0" cx="102.27" cy="48.08" r="26.5"/>
	<path class="st1" d="M102.27,24.08c13.23,0,24,10.77,24,24s-10.77,24-24,24s-24-10.77-24-24S89.03,24.08,102.27,24.08
		 M102.27,19.08c-16.02,0-29,12.98-29,29s12.98,29,29,29c16.02,0,29-12.98,29-29S118.28,19.08,102.27,19.08L102.27,19.08z"/>
</g>
<g>
	<g>
		<path class="st2" d="M25.94,174.07h1.7l5.23,14.2h-2.15l-3.94-11.46l-3.94,11.46H20.7L25.94,174.07z M23.11,183.26h7.47v1.89
			h-7.47V183.26z"/>
		<path class="st2" d="M36.14,187.96c-0.52-0.32-0.92-0.79-1.2-1.41s-0.41-1.36-0.41-2.23v-2.24c0-0.87,0.13-1.62,0.4-2.24
			s0.66-1.09,1.17-1.41s1.12-0.48,1.84-0.48c0.6,0,1.15,0.16,1.65,0.47s0.9,0.75,1.21,1.32l-0.21,2.07c0-0.43-0.08-0.8-0.23-1.1
			s-0.38-0.54-0.68-0.7s-0.66-0.24-1.08-0.24c-0.66,0-1.17,0.21-1.53,0.62s-0.54,0.99-0.54,1.73v2.21c0,0.74,0.18,1.3,0.54,1.7
			s0.87,0.6,1.53,0.6c0.42,0,0.78-0.08,1.08-0.25s0.52-0.41,0.68-0.72s0.23-0.69,0.23-1.12l0.14,2.14c-0.2,0.5-0.53,0.92-0.99,1.26
			s-1.02,0.51-1.69,0.51C37.29,188.45,36.66,188.29,36.14,187.96z M40.58,174.07h1.99v14.2h-1.99V174.07z"/>
		<path class="st2" d="M46.92,187.96c-0.52-0.32-0.92-0.79-1.2-1.41s-0.41-1.36-0.41-2.23v-2.24c0-0.87,0.13-1.62,0.4-2.24
			s0.66-1.09,1.17-1.41s1.12-0.48,1.84-0.48c0.6,0,1.15,0.16,1.65,0.47s0.9,0.75,1.21,1.32l-0.21,2.07c0-0.43-0.08-0.8-0.23-1.1
			s-0.38-0.54-0.68-0.7s-0.66-0.24-1.08-0.24c-0.66,0-1.17,0.21-1.53,0.62s-0.54,0.99-0.54,1.73v2.21c0,0.74,0.18,1.3,0.54,1.7
			s0.87,0.6,1.53,0.6c0.42,0,0.78-0.08,1.08-0.25s0.52-0.41,0.68-0.72s0.23-0.69,0.23-1.12l0.14,2.14c-0.2,0.5-0.53,0.92-0.99,1.26
			s-1.02,0.51-1.69,0.51C48.07,188.45,47.44,188.29,46.92,187.96z M51.37,174.07h1.99v14.2h-1.99V174.07z"/>
		<path class="st2" d="M62.2,187.64c-0.62-0.52-0.93-1.3-0.93-2.36c0-1,0.28-1.75,0.85-2.26s1.42-0.75,2.57-0.75h2.88l0.14,1.6H64.7
			c-0.52,0-0.91,0.12-1.17,0.35s-0.39,0.58-0.39,1.06c0,0.51,0.17,0.9,0.51,1.14s0.86,0.37,1.56,0.37c0.76,0,1.33-0.08,1.7-0.24
			s0.56-0.42,0.56-0.76l0.21,1.43c-0.18,0.27-0.39,0.5-0.65,0.67s-0.56,0.31-0.89,0.4s-0.72,0.13-1.14,0.13
			C63.75,188.42,62.81,188.16,62.2,187.64z M67.48,181.85c0-0.66-0.18-1.18-0.53-1.55s-0.86-0.55-1.51-0.55
			c-0.4,0-0.8,0.06-1.19,0.19s-0.73,0.3-1.03,0.52l-1.46-1c0.38-0.46,0.89-0.82,1.52-1.08s1.33-0.39,2.09-0.39
			c0.84,0,1.56,0.15,2.16,0.44s1.05,0.73,1.37,1.29s0.47,1.24,0.47,2.04v6.51h-1.89V181.85z"/>
		<path class="st2" d="M77.77,178.13h1.99v10.14h-1.99V178.13z M83.92,182.13c0-0.72-0.19-1.27-0.56-1.66s-0.89-0.59-1.56-0.59
			c-0.65,0-1.15,0.17-1.51,0.52s-0.53,0.83-0.53,1.46l-0.21-1.95c0.31-0.61,0.72-1.08,1.23-1.42s1.06-0.5,1.67-0.5
			c1.1,0,1.95,0.36,2.55,1.08s0.9,1.74,0.9,3.05v6.15h-1.99V182.13z"/>
		<path class="st2" d="M90.69,187.89c-0.66-0.35-1.17-0.87-1.52-1.55s-0.52-1.5-0.52-2.47v-1.14c0-1,0.17-1.86,0.5-2.57
			s0.82-1.25,1.46-1.62s1.41-0.56,2.3-0.56c0.85,0,1.57,0.21,2.17,0.63s1.06,1.04,1.37,1.84s0.47,1.76,0.47,2.88V184H90.1v-1.6h4.94
			c-0.06-0.83-0.27-1.47-0.64-1.93s-0.86-0.69-1.48-0.69c-0.76,0-1.34,0.25-1.75,0.74s-0.62,1.19-0.62,2.1v1.29
			c0,0.84,0.22,1.48,0.66,1.93s1.07,0.67,1.88,0.67c0.4,0,0.8-0.08,1.2-0.24s0.75-0.39,1.06-0.68l1.31,1.31
			c-0.5,0.48-1.06,0.85-1.69,1.12s-1.25,0.4-1.88,0.4C92.16,188.42,91.36,188.24,90.69,187.89z"/>
		<path class="st2" d="M98.79,178.13h2.08l1.8,7.24l2.53-7.24h1.39l2.53,7.24l1.8-7.24h2.08l-3.13,10.14h-1.5l-2.47-7l-2.47,7h-1.5
			L98.79,178.13z"/>
		<path class="st2" d="M120.51,178.13h1.99v14.26h-1.99V178.13z M123.4,187.96c-0.47-0.3-0.81-0.73-1.04-1.28l0.14-2.12
			c0,0.44,0.08,0.81,0.23,1.11s0.38,0.54,0.68,0.7s0.66,0.24,1.08,0.24c0.66,0,1.17-0.2,1.53-0.6s0.54-0.96,0.54-1.69v-2.2
			c0-0.74-0.18-1.32-0.54-1.73s-0.87-0.62-1.53-0.62c-0.42,0-0.78,0.08-1.08,0.23s-0.52,0.39-0.68,0.69s-0.23,0.67-0.23,1.09
			l-0.21-1.95c0.31-0.59,0.71-1.05,1.2-1.37s1.04-0.48,1.65-0.48c0.72,0,1.33,0.16,1.84,0.48s0.9,0.79,1.17,1.41s0.4,1.36,0.4,2.24
			v2.21c0,0.86-0.14,1.59-0.41,2.21s-0.67,1.08-1.2,1.4s-1.16,0.48-1.89,0.48C124.42,188.42,123.87,188.27,123.4,187.96z"/>
		<path class="st2" d="M131.82,187.64c-0.62-0.52-0.93-1.3-0.93-2.36c0-1,0.28-1.75,0.85-2.26s1.42-0.75,2.57-0.75h2.88l0.14,1.6
			h-3.01c-0.52,0-0.91,0.12-1.17,0.35s-0.39,0.58-0.39,1.06c0,0.51,0.17,0.9,0.51,1.14s0.86,0.37,1.56,0.37
			c0.76,0,1.33-0.08,1.7-0.24c0.38-0.16,0.56-0.42,0.56-0.76l0.21,1.43c-0.18,0.27-0.39,0.5-0.65,0.67
			c-0.26,0.18-0.55,0.31-0.89,0.4c-0.34,0.09-0.72,0.13-1.14,0.13C133.38,188.42,132.44,188.16,131.82,187.64z M137.11,181.85
			c0-0.66-0.18-1.18-0.53-1.55c-0.35-0.37-0.86-0.55-1.51-0.55c-0.4,0-0.8,0.06-1.19,0.19s-0.73,0.3-1.03,0.52l-1.46-1
			c0.38-0.46,0.89-0.82,1.52-1.08s1.33-0.39,2.09-0.39c0.84,0,1.56,0.15,2.16,0.44c0.6,0.3,1.05,0.73,1.37,1.29s0.47,1.24,0.47,2.04
			v6.51h-1.89V181.85z"/>
		<path class="st2" d="M141.25,178.13h4.57v1.8h-4.57V178.13z M142.86,187.64c-0.38-0.45-0.57-1.12-0.57-2.01v-10.45h1.99v10.47
			c0,0.25,0.05,0.44,0.15,0.57s0.24,0.2,0.43,0.2h0.96v1.89h-1.15C143.85,188.32,143.25,188.09,142.86,187.64z"/>
		<path class="st2" d="M148.55,174.07h1.99v1.99h-1.99V174.07z M148.55,178.13h1.99v10.14h-1.99V178.13z"/>
		<path class="st2" d="M155.32,187.89c-0.66-0.35-1.17-0.87-1.52-1.55c-0.35-0.68-0.52-1.5-0.52-2.47v-1.14c0-1,0.17-1.86,0.5-2.57
			c0.34-0.71,0.82-1.25,1.46-1.62c0.64-0.37,1.41-0.56,2.3-0.56c0.85,0,1.57,0.21,2.17,0.63c0.6,0.42,1.06,1.04,1.37,1.84
			c0.32,0.8,0.47,1.76,0.47,2.88V184h-6.84v-1.6h4.94c-0.06-0.83-0.27-1.47-0.64-1.93c-0.37-0.46-0.86-0.69-1.48-0.69
			c-0.75,0-1.34,0.25-1.75,0.74c-0.41,0.5-0.62,1.19-0.62,2.1v1.29c0,0.84,0.22,1.48,0.66,1.93c0.44,0.45,1.07,0.67,1.88,0.67
			c0.4,0,0.8-0.08,1.2-0.24c0.4-0.16,0.75-0.39,1.06-0.68l1.31,1.31c-0.5,0.48-1.06,0.85-1.69,1.12s-1.25,0.4-1.89,0.4
			C156.79,188.42,155.98,188.24,155.32,187.89z"/>
		<path class="st2" d="M164.3,178.13h1.99v10.14h-1.99V178.13z M170.45,182.13c0-0.72-0.19-1.27-0.56-1.66s-0.89-0.59-1.56-0.59
			c-0.65,0-1.15,0.17-1.51,0.52s-0.53,0.83-0.53,1.46l-0.21-1.95c0.31-0.61,0.72-1.08,1.23-1.42s1.06-0.5,1.67-0.5
			c1.1,0,1.95,0.36,2.55,1.08s0.9,1.74,0.9,3.05v6.15h-1.99V182.13z"/>
		<path class="st2" d="M174.69,178.13h4.57v1.8h-4.57V178.13z M176.3,187.64c-0.38-0.45-0.57-1.12-0.57-2.01v-10.45h1.99v10.47
			c0,0.25,0.05,0.44,0.15,0.57s0.24,0.2,0.43,0.2h0.96v1.89h-1.15C177.28,188.32,176.68,188.09,176.3,187.64z"/>
	</g>
</g>
<path class="st3" d="M135.27,163.08h-70c-24.85,0-45-20.15-45-45v-70c0-24.85,20.15-45,45-45h70c24.85,0,45,20.15,45,45v70
	C180.27,142.93,160.12,163.08,135.27,163.08z"/>
<path class="st4" d="M62.49,124.48C62.5,101.01,81.98,81.99,106.01,82s43.49,19.05,43.48,42.52"/>
<line class="st5" x1="29.5" y1="119.5" x2="54.5" y2="119.5"/>
<line class="st5" x1="42" y1="108" x2="42" y2="132"/>
</svg>
