<?xml version="1.0" encoding="utf-8"?>
<!-- Generator: Adobe Illustrator 24.0.2, SVG Export Plug-In . SVG Version: 6.00 Build 0)  -->
<svg version="1.1" id="Layer_1" xmlns="http://www.w3.org/2000/svg" xmlns:xlink="http://www.w3.org/1999/xlink" x="0px" y="0px"
	 viewBox="0 0 250 250" style="enable-background:new 0 0 250 250;" xml:space="preserve">
<style type="text/css">
	.st0{fill:#FFFFFF;}
	.st1{fill:#0071BC;}
	.st2{stroke:#000000;stroke-width:0.75;stroke-miterlimit:10;}
	.st3{fill:none;stroke:#0071BC;stroke-width:4;stroke-miterlimit:10;}
</style>
<g>
	<path class="st0" d="M127.14,162.29c-1.57,0-2.95-0.82-3.69-2.21c-17.27-32.04-27.18-56.28-27.18-66.5c0-18.75,13.68-34,30.5-34
		c16.82,0,30.5,15.25,30.5,34c0,10.22-9.63,34.45-26.42,66.46C130.11,161.45,128.73,162.29,127.14,162.29z"/>
	<path class="st1" d="M126.77,62.08c15.44,0,28,14.13,28,31.5c0,9.69-9.77,34.1-26.13,65.3c-0.41,0.79-1.12,0.91-1.5,0.91
		c-0.38,0-1.07-0.12-1.49-0.89c-16.83-31.23-26.88-55.64-26.88-65.32C98.77,76.21,111.33,62.08,126.77,62.08 M126.77,57.08
		c-18.23,0-33,16.34-33,36.5c0,14.73,17.86,49.85,27.48,67.69c1.27,2.35,3.58,3.52,5.89,3.52c2.34,0,4.67-1.2,5.93-3.59
		c9.37-17.87,26.7-52.91,26.7-67.63C159.77,73.42,144.99,57.08,126.77,57.08L126.77,57.08z"/>
</g>
<g>
	<circle class="st0" cx="127.27" cy="91.58" r="13"/>
	<path class="st1" d="M127.27,81.08c5.79,0,10.5,4.71,10.5,10.5s-4.71,10.5-10.5,10.5s-10.5-4.71-10.5-10.5
		S121.48,81.08,127.27,81.08 M127.27,76.08c-8.56,0-15.5,6.94-15.5,15.5c0,8.56,6.94,15.5,15.5,15.5s15.5-6.94,15.5-15.5
		C142.77,83.02,135.83,76.08,127.27,76.08L127.27,76.08z"/>
</g>
<g>
	<g>
		<path class="st2" d="M58.07,197.57h1.99v14.2h-1.99V197.57z M59.09,204.37h4.54c0.43,0,0.81-0.1,1.13-0.3s0.58-0.49,0.76-0.86
			s0.27-0.8,0.27-1.28c0-0.49-0.09-0.92-0.27-1.29s-0.43-0.66-0.76-0.86s-0.7-0.31-1.13-0.31h-4.54v-1.89h4.47
			c0.85,0,1.59,0.18,2.24,0.54s1.14,0.87,1.5,1.53s0.53,1.42,0.53,2.29s-0.18,1.63-0.53,2.28s-0.85,1.16-1.5,1.52
			s-1.39,0.54-2.24,0.54h-4.47V204.37z"/>
		<path class="st2" d="M70.76,211.14c-0.62-0.52-0.93-1.3-0.93-2.36c0-1,0.28-1.75,0.85-2.26s1.42-0.75,2.57-0.75h2.88l0.14,1.6
			h-3.01c-0.52,0-0.91,0.12-1.17,0.35s-0.39,0.58-0.39,1.06c0,0.51,0.17,0.9,0.51,1.14s0.86,0.37,1.56,0.37
			c0.76,0,1.33-0.08,1.7-0.24s0.56-0.42,0.56-0.76l0.21,1.43c-0.18,0.27-0.39,0.5-0.65,0.67s-0.56,0.31-0.89,0.4
			s-0.72,0.13-1.14,0.13C72.32,211.92,71.38,211.66,70.76,211.14z M76.05,205.35c0-0.66-0.18-1.18-0.53-1.55s-0.86-0.55-1.51-0.55
			c-0.4,0-0.8,0.06-1.19,0.19s-0.73,0.3-1.03,0.52l-1.46-1c0.38-0.46,0.89-0.82,1.52-1.08s1.33-0.39,2.09-0.39
			c0.84,0,1.56,0.15,2.16,0.44s1.05,0.73,1.37,1.29s0.47,1.24,0.47,2.04v6.51h-1.89V205.35z"/>
		<path class="st2" d="M80.19,201.63h4.57v1.8h-4.57V201.63z M81.8,211.14c-0.38-0.45-0.57-1.12-0.57-2.01v-10.45h1.99v10.47
			c0,0.25,0.05,0.44,0.15,0.57s0.24,0.2,0.43,0.2h0.96v1.89h-1.15C82.79,211.82,82.18,211.59,81.8,211.14z"/>
		<path class="st2" d="M87.49,197.57h1.99v1.99h-1.99V197.57z M87.49,201.63h1.99v10.14h-1.99V201.63z"/>
		<path class="st2" d="M94.26,211.39c-0.66-0.35-1.17-0.87-1.52-1.55s-0.52-1.5-0.52-2.47v-1.14c0-1,0.17-1.86,0.5-2.57
			s0.82-1.25,1.46-1.62s1.41-0.56,2.3-0.56c0.85,0,1.57,0.21,2.17,0.63s1.06,1.04,1.37,1.84s0.47,1.76,0.47,2.88v0.66h-6.84v-1.6
			h4.94c-0.06-0.83-0.27-1.47-0.64-1.93s-0.86-0.69-1.48-0.69c-0.76,0-1.34,0.25-1.75,0.74s-0.62,1.19-0.62,2.1v1.29
			c0,0.84,0.22,1.48,0.66,1.93s1.07,0.67,1.88,0.67c0.4,0,0.8-0.08,1.2-0.24s0.75-0.39,1.06-0.68l1.31,1.31
			c-0.5,0.48-1.06,0.85-1.69,1.12s-1.25,0.4-1.88,0.4C95.72,211.92,94.92,211.74,94.26,211.39z"/>
		<path class="st2" d="M103.23,201.63h1.99v10.14h-1.99V201.63z M109.39,205.63c0-0.72-0.19-1.27-0.56-1.66s-0.89-0.59-1.56-0.59
			c-0.65,0-1.15,0.17-1.51,0.52s-0.53,0.83-0.53,1.46l-0.21-1.95c0.31-0.61,0.72-1.08,1.23-1.42s1.06-0.5,1.67-0.5
			c1.1,0,1.95,0.36,2.55,1.08s0.9,1.74,0.9,3.05v6.15h-1.99V205.63z"/>
		<path class="st2" d="M113.63,201.63h4.57v1.8h-4.57V201.63z M115.24,211.14c-0.38-0.45-0.57-1.12-0.57-2.01v-10.45h1.99v10.47
			c0,0.25,0.05,0.44,0.15,0.57s0.24,0.2,0.43,0.2h0.96v1.89h-1.15C116.22,211.82,115.62,211.59,115.24,211.14z"/>
		<path class="st2" d="M126.5,197.57h1.99v14.2h-1.99V197.57z M127.49,209.88h8.13v1.89h-8.13V209.88z"/>
		<path class="st2" d="M139.4,211.4c-0.63-0.34-1.1-0.85-1.43-1.51s-0.49-1.46-0.49-2.39v-1.65c0-0.92,0.16-1.7,0.49-2.36
			s0.81-1.15,1.43-1.49s1.38-0.51,2.26-0.51s1.63,0.17,2.26,0.51s1.1,0.84,1.43,1.49s0.49,1.44,0.49,2.36v1.68
			c0,0.92-0.16,1.71-0.49,2.37s-0.81,1.15-1.43,1.5s-1.38,0.52-2.26,0.52S140.02,211.75,139.4,211.4z M143.27,209.37
			c0.38-0.44,0.57-1.05,0.57-1.84v-1.68c0-0.79-0.19-1.4-0.57-1.83s-0.92-0.64-1.62-0.64s-1.24,0.21-1.62,0.64s-0.57,1.04-0.57,1.83
			v1.68c0,0.79,0.19,1.4,0.57,1.84s0.92,0.65,1.62,0.65S142.89,209.81,143.27,209.37z"/>
		<path class="st2" d="M150.39,211.4c-0.65-0.34-1.15-0.85-1.5-1.5s-0.52-1.45-0.52-2.38v-1.67c0-0.92,0.17-1.7,0.52-2.35
			s0.84-1.15,1.5-1.49s1.44-0.51,2.37-0.51c0.53,0,1.02,0.06,1.49,0.19s0.88,0.31,1.25,0.55s0.68,0.53,0.93,0.88l-1.44,1.29
			c-0.29-0.33-0.62-0.58-1.01-0.75s-0.78-0.26-1.2-0.26c-0.77,0-1.36,0.21-1.79,0.64s-0.63,1.04-0.63,1.82v1.67
			c0,0.8,0.21,1.42,0.63,1.86s1.02,0.65,1.79,0.65c0.42,0,0.83-0.09,1.21-0.28s0.72-0.46,1-0.8l1.44,1.39
			c-0.25,0.34-0.57,0.63-0.94,0.86s-0.79,0.42-1.25,0.54s-0.96,0.19-1.48,0.19C151.83,211.92,151.04,211.75,150.39,211.4z"/>
		<path class="st2" d="M159.06,211.14c-0.62-0.52-0.93-1.3-0.93-2.36c0-1,0.28-1.75,0.85-2.26s1.42-0.75,2.57-0.75h2.88l0.14,1.6
			h-3.01c-0.52,0-0.91,0.12-1.17,0.35c-0.26,0.23-0.39,0.58-0.39,1.06c0,0.51,0.17,0.9,0.51,1.14s0.86,0.37,1.56,0.37
			c0.76,0,1.33-0.08,1.7-0.24c0.37-0.16,0.56-0.42,0.56-0.76l0.21,1.43c-0.18,0.27-0.39,0.5-0.65,0.67
			c-0.26,0.18-0.56,0.31-0.89,0.4c-0.34,0.09-0.72,0.13-1.14,0.13C160.62,211.92,159.68,211.66,159.06,211.14z M164.35,205.35
			c0-0.66-0.18-1.18-0.53-1.55c-0.36-0.37-0.86-0.55-1.51-0.55c-0.4,0-0.8,0.06-1.19,0.19c-0.39,0.12-0.73,0.3-1.03,0.52l-1.46-1
			c0.38-0.46,0.89-0.82,1.52-1.08c0.63-0.26,1.33-0.39,2.09-0.39c0.84,0,1.56,0.15,2.16,0.44c0.6,0.3,1.05,0.73,1.37,1.29
			s0.47,1.24,0.47,2.04v6.51h-1.89V205.35z"/>
		<path class="st2" d="M168.49,201.63h4.57v1.8h-4.57V201.63z M170.1,211.14c-0.38-0.45-0.57-1.12-0.57-2.01v-10.45h1.99v10.47
			c0,0.25,0.05,0.44,0.15,0.57s0.24,0.2,0.43,0.2h0.96v1.89h-1.15C171.09,211.82,170.49,211.59,170.1,211.14z"/>
		<path class="st2" d="M175.79,197.57h1.99v1.99h-1.99V197.57z M175.79,201.63h1.99v10.14h-1.99V201.63z"/>
		<path class="st2" d="M182.44,211.4c-0.63-0.34-1.1-0.85-1.43-1.51c-0.33-0.66-0.49-1.46-0.49-2.39v-1.65
			c0-0.92,0.16-1.7,0.49-2.36c0.33-0.65,0.81-1.15,1.43-1.49s1.38-0.51,2.26-0.51s1.63,0.17,2.26,0.51s1.1,0.84,1.43,1.49
			c0.33,0.65,0.49,1.44,0.49,2.36v1.68c0,0.92-0.17,1.71-0.49,2.37c-0.33,0.65-0.81,1.15-1.43,1.5s-1.38,0.52-2.26,0.52
			S183.07,211.75,182.44,211.4z M186.32,209.37c0.38-0.44,0.57-1.05,0.57-1.84v-1.68c0-0.79-0.19-1.4-0.57-1.83
			s-0.92-0.64-1.62-0.64c-0.7,0-1.24,0.21-1.62,0.64s-0.57,1.04-0.57,1.83v1.68c0,0.79,0.19,1.4,0.57,1.84s0.92,0.65,1.62,0.65
			C185.4,210.02,185.93,209.81,186.32,209.37z"/>
		<path class="st2" d="M191.71,201.63h1.99v10.14h-1.99V201.63z M197.86,205.63c0-0.72-0.19-1.27-0.56-1.66s-0.89-0.59-1.56-0.59
			c-0.65,0-1.15,0.17-1.51,0.52c-0.36,0.34-0.53,0.83-0.53,1.46l-0.21-1.95c0.31-0.61,0.72-1.08,1.22-1.42
			c0.51-0.33,1.06-0.5,1.68-0.5c1.1,0,1.95,0.36,2.55,1.08c0.6,0.72,0.9,1.74,0.9,3.05v6.15h-1.99V205.63z"/>
	</g>
</g>
<path class="st3" d="M160.27,189.58h-70c-24.85,0-45-20.15-45-45v-70c0-24.85,20.15-45,45-45h70c24.85,0,45,20.15,45,45v70
	C205.27,169.43,185.12,189.58,160.27,189.58z"/>
</svg>
