<?xml version="1.0" encoding="utf-8"?>
<!-- Generator: Adobe Illustrator 24.0.2, SVG Export Plug-In . SVG Version: 6.00 Build 0)  -->
<svg version="1.1" id="Layer_1" xmlns="http://www.w3.org/2000/svg" xmlns:xlink="http://www.w3.org/1999/xlink" x="0px" y="0px"
	 viewBox="0 0 250 250" style="enable-background:new 0 0 250 250;" xml:space="preserve">
<style type="text/css">
	.st0{fill:#FFFFFF;}
	.st1{fill:#0071BC;}
	.st2{stroke:#000000;stroke-width:0.75;stroke-miterlimit:10;}
	.st3{fill:none;stroke:#0071BC;stroke-width:4;stroke-miterlimit:10;}
</style>
<g>
	<circle class="st0" cx="113" cy="105" r="26.5"/>
	<path class="st1" d="M113,81c13.23,0,24,10.77,24,24s-10.77,24-24,24s-24-10.77-24-24S99.77,81,113,81 M113,76
		c-16.02,0-29,12.98-29,29s12.98,29,29,29s29-12.98,29-29S129.02,76,113,76L113,76z"/>
</g>
<g>
	<path class="st0" d="M157.5,148.79c-0.08,0-0.19-0.02-0.29-0.12l-23.47-23.47c-0.1-0.1-0.12-0.21-0.12-0.29s0.02-0.19,0.12-0.29
		c0.1-0.1,0.21-0.12,0.29-0.12c0.08,0,0.19,0.02,0.29,0.12l23.47,23.47c0.16,0.16,0.16,0.42,0,0.59
		C157.69,148.77,157.58,148.79,157.5,148.79z"/>
	<path class="st1" d="M134.03,121.99c-0.75,0-1.49,0.28-2.06,0.85v0c-1.14,1.14-1.14,2.98,0,4.12l23.47,23.47
		c0.57,0.57,1.31,0.85,2.06,0.85s1.49-0.28,2.06-0.85c1.14-1.14,1.14-2.98,0-4.12l-23.47-23.47
		C135.52,122.28,134.78,121.99,134.03,121.99L134.03,121.99z"/>
</g>
<g>
	<g>
		<path class="st2" d="M74,199.07h1.99v14.2H74V199.07z M75.03,205.87h4.54c0.43,0,0.81-0.1,1.13-0.3s0.58-0.49,0.76-0.86
			s0.27-0.8,0.27-1.28c0-0.49-0.09-0.92-0.27-1.29s-0.43-0.66-0.76-0.86s-0.7-0.31-1.13-0.31h-4.54v-1.89h4.47
			c0.85,0,1.59,0.18,2.24,0.54s1.14,0.87,1.5,1.53s0.53,1.42,0.53,2.29s-0.18,1.63-0.53,2.28s-0.85,1.16-1.5,1.52
			s-1.39,0.54-2.24,0.54h-4.47V205.87z"/>
		<path class="st2" d="M86.7,212.64c-0.62-0.52-0.93-1.3-0.93-2.36c0-1,0.28-1.75,0.85-2.26s1.42-0.75,2.57-0.75h2.88l0.14,1.6H89.2
			c-0.52,0-0.91,0.12-1.17,0.35s-0.39,0.58-0.39,1.06c0,0.51,0.17,0.9,0.51,1.14s0.86,0.37,1.56,0.37c0.76,0,1.33-0.08,1.7-0.24
			s0.56-0.42,0.56-0.76l0.21,1.43c-0.18,0.27-0.39,0.5-0.65,0.67s-0.56,0.31-0.89,0.4s-0.72,0.13-1.14,0.13
			C88.25,213.42,87.31,213.16,86.7,212.64z M91.98,206.85c0-0.66-0.18-1.18-0.53-1.55s-0.86-0.55-1.51-0.55
			c-0.4,0-0.8,0.06-1.19,0.19s-0.73,0.3-1.03,0.52l-1.46-1c0.38-0.46,0.89-0.82,1.52-1.08s1.33-0.39,2.09-0.39
			c0.84,0,1.56,0.15,2.16,0.44s1.05,0.73,1.37,1.29s0.47,1.24,0.47,2.04v6.51h-1.89V206.85z"/>
		<path class="st2" d="M96.12,203.13h4.57v1.8h-4.57V203.13z M97.74,212.64c-0.38-0.45-0.57-1.12-0.57-2.01v-10.45h1.99v10.47
			c0,0.25,0.05,0.44,0.15,0.57s0.24,0.2,0.43,0.2h0.96v1.89h-1.15C98.72,213.32,98.12,213.09,97.74,212.64z"/>
		<path class="st2" d="M103.42,199.07h1.99v1.99h-1.99V199.07z M103.42,203.13h1.99v10.14h-1.99V203.13z"/>
		<path class="st2" d="M110.19,212.89c-0.66-0.35-1.17-0.87-1.52-1.55s-0.52-1.5-0.52-2.47v-1.14c0-1,0.17-1.86,0.5-2.57
			s0.82-1.25,1.46-1.62s1.41-0.56,2.3-0.56c0.85,0,1.57,0.21,2.17,0.63s1.06,1.04,1.37,1.84s0.47,1.76,0.47,2.88V209h-6.84v-1.6
			h4.94c-0.06-0.83-0.27-1.47-0.64-1.93s-0.86-0.69-1.48-0.69c-0.76,0-1.34,0.25-1.75,0.74s-0.62,1.19-0.62,2.1v1.29
			c0,0.84,0.22,1.48,0.66,1.93s1.07,0.67,1.88,0.67c0.4,0,0.8-0.08,1.2-0.24s0.75-0.39,1.06-0.68l1.31,1.31
			c-0.5,0.48-1.06,0.85-1.69,1.12s-1.25,0.4-1.88,0.4C111.66,213.42,110.86,213.24,110.19,212.89z"/>
		<path class="st2" d="M119.17,203.13h1.99v10.14h-1.99V203.13z M125.32,207.13c0-0.72-0.19-1.27-0.56-1.66s-0.89-0.59-1.56-0.59
			c-0.65,0-1.15,0.17-1.51,0.52s-0.53,0.83-0.53,1.46l-0.21-1.95c0.31-0.61,0.72-1.08,1.23-1.42s1.06-0.5,1.67-0.5
			c1.1,0,1.95,0.36,2.55,1.08s0.9,1.74,0.9,3.05v6.15h-1.99V207.13z"/>
		<path class="st2" d="M129.56,203.13h4.57v1.8h-4.57V203.13z M131.17,212.64c-0.38-0.45-0.57-1.12-0.57-2.01v-10.45h1.99v10.47
			c0,0.25,0.05,0.44,0.15,0.57s0.24,0.2,0.43,0.2h0.96v1.89h-1.15C132.16,213.32,131.55,213.09,131.17,212.64z"/>
		<path class="st2" d="M144.42,213.27h-1.99v-14.2h1.99V213.27z"/>
		<path class="st2" d="M147.74,203.13h1.99v10.14h-1.99V203.13z M153.89,207.13c0-0.72-0.19-1.27-0.56-1.66s-0.89-0.59-1.56-0.59
			c-0.65,0-1.15,0.17-1.51,0.52s-0.53,0.83-0.53,1.46l-0.21-1.95c0.31-0.61,0.72-1.08,1.23-1.42s1.06-0.5,1.67-0.5
			c1.1,0,1.95,0.36,2.55,1.08s0.9,1.74,0.9,3.05v6.15h-1.99V207.13z"/>
		<path class="st2" d="M158.13,203.13h5.07v1.7h-5.07V203.13z M159.21,201.76c0-0.9,0.21-1.57,0.62-2.02
			c0.41-0.45,1.05-0.67,1.91-0.67h1.46v1.89h-1.43c-0.19,0-0.33,0.07-0.43,0.21s-0.15,0.33-0.15,0.56v11.53h-1.99V201.76z"/>
		<path class="st2" d="M166.88,212.9c-0.63-0.34-1.1-0.85-1.43-1.51c-0.33-0.66-0.49-1.46-0.49-2.39v-1.65
			c0-0.92,0.17-1.7,0.49-2.36c0.33-0.65,0.81-1.15,1.43-1.49s1.38-0.51,2.26-0.51s1.63,0.17,2.26,0.51s1.1,0.84,1.43,1.49
			c0.33,0.65,0.49,1.44,0.49,2.36v1.68c0,0.92-0.16,1.71-0.49,2.37c-0.33,0.65-0.81,1.15-1.43,1.5s-1.38,0.52-2.26,0.52
			S167.51,213.25,166.88,212.9z M170.75,210.87c0.38-0.44,0.57-1.05,0.57-1.84v-1.68c0-0.79-0.19-1.4-0.57-1.83
			s-0.92-0.64-1.62-0.64c-0.7,0-1.24,0.21-1.62,0.64s-0.57,1.04-0.57,1.83v1.68c0,0.79,0.19,1.4,0.57,1.84s0.92,0.65,1.62,0.65
			C169.83,211.52,170.37,211.31,170.75,210.87z"/>
	</g>
</g>
<path class="st3" d="M157.2,188.08h-70c-24.85,0-45-20.15-45-45v-70c0-24.85,20.15-45,45-45h70c24.85,0,45,20.15,45,45v70
	C202.2,167.93,182.05,188.08,157.2,188.08z"/>
</svg>
